<svg xmlns="http://www.w3.org/2000/svg" viewBox="0 0 800 450" width="100%" height="100%">
  <defs>
    <linearGradient id="pesBg" x1="0%" y1="0%" x2="100%" y2="100%">
      <stop offset="0%" stop-color="#090a10"/>
      <stop offset="50%" stop-color="#141829"/>
      <stop offset="100%" stop-color="#5865F2"/>
    </linearGradient>
  </defs>
  <rect width="800" height="450" fill="url(#pesBg)"/>
  <!-- Pitch Lines -->
  <circle cx="400" cy="225" r="120" fill="none" stroke="#ffffff" stroke-opacity="0.1" stroke-width="3"/>
  <line x1="400" y1="0" x2="400" y2="450" stroke="#ffffff" stroke-opacity="0.1" stroke-width="3"/>
  <!-- Discord Icon -->
  <g transform="translate(340, 140)">
    <path d="M100 0C84 0 70 8 60 20C40 10 20 10 0 20C-10 8 -24 0 -40 0" fill="none" stroke="#ffffff" stroke-width="4"/>
    <path d="M 60 40 C 60 40, 50 20, 30 25 C 20 40, 20 70, 30 85 C 50 90, 60 75, 60 75" fill="#5865F2"/>
  </g>
  <!-- Title Badge -->
  <rect x="180" y="50" width="440" height="54" rx="10" fill="#0d1117" fill-opacity="0.9" stroke="#5865F2" stroke-width="2"/>
  <text x="400" y="85" fill="#ffffff" font-family="-apple-system, BlinkMacSystemFont, 'Segoe UI', Roboto, sans-serif" font-size="20" font-weight="bold" text-anchor="middle" letter-spacing="1">PES 2021 DISCORD RPC</text>
  <text x="400" y="380" fill="#5865F2" font-family="monospace" font-size="14" font-weight="bold" text-anchor="middle">DISCORD RICH PRESENCE INTEGRATION</text>
  <text x="400" y="415" fill="#94a3b8" font-family="monospace" font-size="12" text-anchor="middle">v1.0.11 • eFootball PES 2021 • Live Score &amp; Match Status</text>
</svg>
